<svg width="48" height="43" viewBox="0 0 48 43" fill="none" xmlns="http://www.w3.org/2000/svg">
<path d="M47.487 10.8124C47.449 11.5075 47.15 20.0469 46.672 20.5672C45.6153 21.6226 44.558 22.9457 43.5 24V18.7353H37.5C37.9979 18.2384 38.4953 17.741 38.992 17.243C39.397 16.7682 39.625 16.1755 39.639 15.5603C39.717 13.4909 39.625 11.4109 39.706 9.33822C39.731 8.72182 39.965 8.13038 40.371 7.65466C42.18 5.75751 44.066 3.92989 45.958 2.10889C46.293 1.87724 46.662 1.69714 47.054 1.57501C47.253 1.92035 47.393 2.29465 47.468 2.68333C47.503 5.39248 47.487 8.10246 47.487 10.8124Z" fill="white"/>
<path d="M22.541 42.0732C23.7 43.2212 23.81 43.2254 24.937 42.1113C25.9586 41.1063 26.9796 40.1008 28 39.0948V28.1472C26.8958 29.2396 25.7924 30.3328 24.691 31.4278C24.043 32.0726 23.59 32.1785 22.878 31.4683C18.124 26.728 13.3172 22.0372 8.57573 17.2861C8.13073 16.7892 7.87073 16.1623 7.83733 15.5056C7.74743 13.4347 7.85782 11.3538 7.76622 9.28442C7.71992 8.63252 7.45623 8.01279 7.01493 7.51809C5.33433 5.73682 3.57583 4.02177 1.80103 2.32741C1.37713 2.02313 0.911424 1.77742 0.417424 1.59736C0.235424 2.05 0.111828 2.52261 0.049428 3.00449C0.019428 8.12812 0.0494241 13.2517 0.00232414 18.3745C-0.0154759 18.8334 0.0691312 19.2906 0.250531 19.715C0.431831 20.1394 0.705627 20.5209 1.05323 20.8337C8.22063 27.9108 15.3832 34.9906 22.541 42.0732Z" fill="white"/>
<path d="M23.824 0.00208965C29.334 0.00208965 34.843 -0.0086708 40.353 0.0186442C40.93 0.078645 41.5 0.197959 42.051 0.374567C41.796 0.916907 41.48 1.43044 41.109 1.90586C39.372 3.6921 37.606 5.45433 35.792 7.16772C35.457 7.46397 35.196 7.82955 35.028 8.23717C34.859 8.64478 34.788 9.08392 34.82 9.52178C34.88 11.6739 34.886 13.8375 34.809 15.9913C34.786 16.6074 34.549 17.1982 34.138 17.6691C33.7597 18.0535 33.3803 18.4369 33 18.8195H24.732V27.0472C24.01 27.7732 23.483 27.7334 22.784 27.0315C19.688 23.9267 16.537 20.8724 13.4674 17.7436C13.0319 17.242 12.7814 16.6144 12.7554 15.9598C12.6699 13.8077 12.6895 11.6457 12.7417 9.4895C12.7707 9.07249 12.7022 8.65454 12.5413 8.26664C12.3804 7.87875 12.1313 7.53088 11.8124 7.24884C9.99749 5.53793 8.23299 3.77239 6.49669 1.98615C6.09289 1.48218 5.7423 0.940345 5.4502 0.368773C6.0522 0.195974 6.66999 0.0795567 7.29509 0.0211274C12.8051 -0.00618762 18.316 0.00208965 23.824 0.00208965Z" fill="white"/>
<path d="M48 33.75V28.25H32.875V29.625H30.125V25.5H42.5V20H26V25.5H28.75V39.25H32.875V42H48V36.5H32.875V37.875H30.125V31H32.875V33.75H48Z" fill="white"/>
</svg>
