<svg width="119" height="119" viewBox="0 0 119 119" fill="none" xmlns="http://www.w3.org/2000/svg">
<path fill-rule="evenodd" clip-rule="evenodd" d="M83.0088 57.6889C83.0052 56.9915 83.0015 56.2941 83.0015 55.597L83.0006 55.5946H82.9819C82.9819 54.9464 82.9829 54.2982 82.9838 53.6501V53.65V53.65C82.9868 51.6096 82.9898 49.5694 82.9633 47.5297C82.8887 47.144 82.7499 46.7727 82.5524 46.4301C82.164 46.5513 81.7974 46.7299 81.4657 46.9598C79.5887 48.7664 77.7176 50.5796 75.922 52.4617C75.5191 52.9337 75.2874 53.5205 75.2624 54.132C75.2222 55.168 75.2253 56.206 75.2284 57.2435C75.2315 58.2651 75.2345 59.2863 75.1962 60.3049C75.1819 60.9153 74.9558 61.5033 74.5543 61.9744C72.5434 63.9905 70.5217 65.9967 68.497 68H79.4397C80.3515 67.0912 81.2629 66.1819 82.1737 65.2723C82.6479 64.7562 82.9267 64.0994 82.9641 63.4099C83.0288 61.5043 83.0188 59.5965 83.0088 57.6892V57.689V57.6889ZM39.4094 68C38.578 67.1789 37.7466 66.3578 36.915 65.5368C36.5701 65.2264 36.2985 64.8479 36.1186 64.4269C35.9387 64.0058 35.8547 63.5522 35.8724 63.097C35.8987 60.2376 35.9008 57.378 35.9029 54.5184C35.9045 52.295 35.9061 50.0717 35.9191 47.8483C35.9811 47.3702 36.1037 46.9013 36.2842 46.4523C36.7743 46.6309 37.2363 46.8747 37.6569 47.1765C39.4177 48.8575 41.1623 50.559 42.8296 52.3262C43.2675 52.817 43.529 53.4319 43.575 54.0787C43.6207 55.1095 43.6158 56.1432 43.6109 57.1771C43.606 58.2023 43.6011 59.2277 43.6455 60.2507C43.6787 60.9022 43.9366 61.5241 44.3781 62.0171C46.3764 64.0194 48.3863 66.0109 50.399 68H39.4094Z" fill="white"/>
<path d="M59.5076 43.092C64.9741 43.092 70.4396 43.0813 75.9061 43.1084C76.4789 43.168 77.0435 43.2863 77.5904 43.4615C77.3378 43.9996 77.0246 44.5092 76.6566 44.9808C74.9332 46.753 73.1809 48.5012 71.3812 50.2011C71.049 50.495 70.7897 50.8578 70.6227 51.2622C70.4557 51.6666 70.3853 52.1021 70.4167 52.5365C70.4762 54.6716 70.4821 56.8183 70.4057 58.9551C70.3826 59.5663 70.1482 60.1523 69.7401 60.6195C66.6609 63.7491 63.5054 66.8097 60.4084 69.9236C59.6918 70.6438 59.1689 70.6044 58.4753 69.908C55.4038 66.8277 52.2779 63.7976 49.2327 60.6935C48.8006 60.1959 48.5521 59.5733 48.5264 58.9239C48.4415 56.7888 48.461 54.6438 48.5128 52.5046C48.5415 52.0909 48.4735 51.6762 48.3139 51.2914C48.1543 50.9066 47.9071 50.5615 47.5908 50.2816C45.7902 48.5842 44.0396 46.8325 42.3171 45.0604C41.9165 44.5604 41.5686 44.0229 41.2788 43.4558C41.8761 43.2844 42.489 43.169 43.1092 43.111C48.5756 43.0839 54.0429 43.092 59.5076 43.092Z" fill="white"/>
<path d="M28.8293 79.0486C29.0108 78.9221 29.2072 78.8567 29.4183 78.8523C29.4978 78.8525 29.6191 78.8671 29.7821 78.8963C29.9399 78.9291 30.0606 78.96 30.1443 78.989C30.3771 79.0727 30.5679 79.2213 30.7167 79.4349L31.6991 80.8446L33.5893 79.5273L34.1754 80.3683L29.3857 83.7061L27.8173 81.4554C27.6685 81.2418 27.5951 81.0113 27.5972 80.7639C27.5974 80.6845 27.6147 80.5614 27.6492 80.3945C27.68 80.2224 27.709 80.099 27.7364 80.0244C27.8135 79.8279 27.9429 79.6663 28.1245 79.5398L28.8293 79.0486ZM29.4073 79.8952L28.7185 80.3752C28.6918 80.3938 28.675 80.4095 28.668 80.4223C28.5711 80.6247 28.5452 80.7697 28.5904 80.8572L28.6183 80.8972L29.6006 82.3069L30.8981 81.4027L29.9158 79.993C29.8897 79.9557 29.825 79.9254 29.7216 79.9023C29.6183 79.8791 29.526 79.872 29.445 79.8809C29.4306 79.883 29.418 79.8878 29.4073 79.8952Z" fill="white"/>
<path d="M24.9289 70.4739C25.1376 70.4004 25.3443 70.3897 25.5489 70.4419C25.6255 70.4632 25.7384 70.5097 25.8878 70.5813C26.0311 70.6551 26.1392 70.717 26.2121 70.7673C26.3015 70.8255 26.3726 70.8902 26.4253 70.9613L28.2863 69.0745L28.6559 70.1242L26.8426 71.9115L27.2154 72.9704L29.3886 72.2053L29.729 73.1722L24.2224 75.1109L23.3114 72.5234C23.2249 72.2778 23.2157 72.0361 23.2838 71.7982C23.3051 71.7217 23.3547 71.6077 23.4324 71.4561C23.508 71.2984 23.5689 71.1873 23.6152 71.1227C23.742 70.9538 23.9098 70.8327 24.1185 70.7592L24.9289 70.4739ZM25.2601 71.444L24.4682 71.7228C24.4375 71.7336 24.4171 71.7442 24.4069 71.7547C24.2595 71.9239 24.1959 72.0567 24.216 72.1531L24.8028 73.8198L26.2946 73.2946L25.724 71.674C25.7089 71.631 25.6546 71.5846 25.5611 71.5347C25.4676 71.4848 25.3807 71.4533 25.3002 71.4402C25.2857 71.4384 25.2724 71.4397 25.2601 71.444Z" fill="white"/>
<path d="M25.5712 60.1071C25.7856 60.0944 25.9738 60.1354 26.1359 60.2301C26.2445 60.3019 26.3813 60.4112 26.5465 60.5579C26.7112 60.6981 26.8223 60.8121 26.8797 60.9C27.0078 61.0815 27.0781 61.2795 27.0908 61.4939L27.1785 62.9751C27.1912 63.1895 27.1446 63.3944 27.0388 63.5897C26.9922 63.6838 26.8958 63.8166 26.7495 63.9883C26.5963 64.1538 26.4729 64.2719 26.3792 64.3427C26.2295 64.4559 26.0474 64.5188 25.833 64.5315L22.7827 64.712C22.5683 64.7247 22.38 64.6836 22.218 64.5889C22.1167 64.5297 21.9834 64.4268 21.8183 64.2801C21.6463 64.1273 21.5316 64.0069 21.4742 63.919C21.3461 63.7375 21.2757 63.5396 21.263 63.3252L21.1754 61.8439C21.1627 61.6295 21.2092 61.4246 21.315 61.2293C21.3616 61.1353 21.4585 61.0089 21.6056 60.8503C21.7523 60.6851 21.8753 60.5605 21.9746 60.4764C22.1244 60.3632 22.3065 60.3003 22.5209 60.2876L25.5712 60.1071ZM22.7514 63.687L25.7627 63.5088C25.7822 63.5076 25.795 63.5036 25.8011 63.4967C25.9883 63.3553 26.1195 63.2041 26.1948 63.0431C26.2005 63.0298 26.2028 63.0133 26.2016 62.9938L26.1186 61.5905C26.1174 61.571 26.1132 61.555 26.106 61.5423C26.0123 61.3914 25.8641 61.2568 25.6615 61.1383L25.622 61.1309L22.6107 61.3091C22.5847 61.3106 22.5686 61.3149 22.5625 61.3217C22.3692 61.4701 22.2347 61.6215 22.1591 61.7759C22.1534 61.7893 22.1511 61.8057 22.1522 61.8252L22.2353 63.2285C22.2368 63.2545 22.241 63.2706 22.2479 63.2767C22.3412 63.4211 22.4926 63.5556 22.7021 63.6801L22.7514 63.687Z" fill="white"/>
<path d="M23.2868 50.5815L22.9556 52.1279L27.7095 53.1461L27.4948 54.1484L22.7409 53.1303L22.4097 54.6767L21.4551 54.4723L22.3322 50.377L23.2868 50.5815Z" fill="white"/>
<path d="M31.1448 43.9623L29.4766 47.232L24.2764 44.5788L25.9446 41.3091L26.8142 41.7528L25.6118 44.1094L26.9249 44.7793L28.043 42.588L28.9126 43.0316L27.7945 45.223L29.0728 45.8752L30.2752 43.5186L31.1448 43.9623Z" fill="white"/>
<path d="M35.6777 36.0957C35.7455 36.2442 35.7917 36.3777 35.8164 36.4962C35.9482 37.1575 35.8726 37.6454 35.5897 37.9599L34.7735 38.8671C34.6299 39.0268 34.4514 39.1377 34.2381 39.1996C34.1293 39.233 33.9646 39.2556 33.744 39.2672C33.5234 39.2789 33.3575 39.2785 33.2462 39.2659C33.0604 39.2389 32.8877 39.1535 32.728 39.0099L30.4417 36.9533C30.2869 36.814 30.1862 36.6534 30.1398 36.4715C30.1107 36.3579 30.0903 36.1907 30.0787 35.9702C30.0665 35.7404 30.0716 35.5742 30.0938 35.4716C30.146 35.2385 30.2374 35.0493 30.3679 34.9041L31.184 33.9969C31.4626 33.6872 31.9398 33.5606 32.6156 33.617C32.6804 33.6228 32.8108 33.6481 33.0068 33.6931L32.5513 34.6227C32.2417 34.6069 32.0325 34.6156 31.9236 34.649C31.9144 34.6495 31.9033 34.657 31.8903 34.6715L31.1198 35.528L31.101 35.5635C31.0556 35.7503 31.0641 35.9549 31.1265 36.1774C31.1319 36.191 31.1563 36.2173 31.1999 36.2565L33.4063 38.2413C33.445 38.2761 33.5379 38.2896 33.6849 38.2818C33.8315 38.2649 33.95 38.2402 34.0405 38.2077C34.0497 38.2072 34.0673 38.1925 34.0934 38.1635L34.8377 37.336C34.8508 37.3215 34.8593 37.3073 34.8631 37.2932C34.8829 37.2323 34.8878 37.1491 34.8776 37.0436C34.8717 36.9333 34.8599 36.8395 34.8419 36.7621L34.8158 36.6598L35.6777 36.0957Z" fill="white"/>
<path d="M40.3583 27.7892L39.0332 28.6525L41.6872 32.7259L40.8283 33.2855L38.1744 29.2121L36.8493 30.0754L36.3164 29.2574L39.8254 26.9712L40.3583 27.7892Z" fill="white"/>
<path d="M50.5991 28.6342L47.1109 29.7773L45.293 24.2296L48.7811 23.0865L49.0851 24.0142L46.5711 24.8381L47.0301 26.2389L49.3679 25.4728L49.6719 26.4005L47.3341 27.1666L47.781 28.5304L50.2951 27.7065L50.5991 28.6342Z" fill="white"/>
<path d="M59.3397 25.9837C59.3503 26.2112 59.3102 26.3988 59.2193 26.5463C59.1586 26.6404 59.0538 26.7691 58.905 26.9324C58.756 27.0892 58.6308 27.1992 58.5295 27.2626C58.3269 27.3893 58.1346 27.4569 57.9526 27.4654L55.2806 27.5899L55.0088 21.7583L57.6808 21.6338C57.9083 21.6232 58.1092 21.6692 58.2834 21.7719C58.3836 21.8258 58.5122 21.9273 58.669 22.0764C58.8258 22.2255 58.9423 22.3503 59.0187 22.451C59.1294 22.5892 59.19 22.7721 59.2006 22.9996L59.3397 25.9837ZM56.2591 26.567L57.8389 26.4934C57.8779 26.4916 57.9005 26.4873 57.9067 26.4805C57.9826 26.4313 58.0703 26.3556 58.1697 26.2532C58.2689 26.1443 58.3173 26.0639 58.3148 26.0119L58.1781 23.0766C58.1771 23.0571 58.1731 23.041 58.166 23.0283C58.0331 22.8325 57.8834 22.6961 57.717 22.6192C57.7101 22.613 57.6807 22.6111 57.6287 22.6135L56.0782 22.6858L56.2591 26.567Z" fill="white"/>
<path d="M73.9727 29.3316C73.8859 29.5421 73.7603 29.7016 73.596 29.8098C73.529 29.8526 73.4178 29.9088 73.2624 29.9785C73.1094 30.0421 72.9942 30.0826 72.9166 30.0999C72.6755 30.1553 72.4316 30.1321 72.1849 30.0304L69.6489 28.9845L71.8748 23.5875L74.4108 24.6335C74.6455 24.7302 74.8335 24.8888 74.975 25.109C75.0178 25.176 75.0698 25.2889 75.1309 25.4479C75.1946 25.6009 75.235 25.7161 75.2523 25.7937C75.2926 25.9863 75.2668 26.1939 75.175 26.4165L74.8995 27.0843C74.7804 27.3731 74.5552 27.5865 74.2237 27.7243C74.3616 28.0558 74.3722 28.3629 74.2556 28.6457L73.9727 29.3316ZM73.9243 26.7349C73.9353 26.7254 73.9469 26.7055 73.9594 26.6755L74.2236 26.0347L74.2332 25.9858C74.2209 25.8963 74.1923 25.8035 74.1473 25.7075C74.1109 25.608 74.0717 25.5496 74.0296 25.5322L72.4502 24.8809L71.8881 26.2436L73.4765 26.8987C73.5187 26.9161 73.5895 26.9066 73.689 26.8702C73.7885 26.8338 73.8669 26.7887 73.9243 26.7349ZM73.0049 28.9641C73.0184 28.9485 73.03 28.9287 73.04 28.9046L73.3042 28.2639L73.3138 28.215C73.3015 28.1254 73.2729 28.0327 73.228 27.9367C73.1891 27.8432 73.1486 27.7878 73.1065 27.7704L71.5271 27.1191L70.9688 28.4728L72.5572 29.1279C72.5993 29.1453 72.6701 29.1358 72.7696 29.0994C72.8691 29.063 72.9475 29.0179 73.0049 28.9641Z" fill="white"/>
<path d="M84.2118 30.6115L80.6792 32.0539L79.1332 34.0793L78.3184 33.4573L79.8644 31.4319L80.3395 27.6558L81.2397 28.3429L80.9272 30.8923L83.3039 29.9185L84.2118 30.6115Z" fill="white"/>
<path d="M92.1236 44.4923C91.9275 44.5947 91.7244 44.6346 91.5144 44.6121C91.4356 44.6018 91.3172 44.5719 91.1592 44.5222C91.0069 44.4696 90.8911 44.4236 90.8118 44.3842C90.7149 44.3393 90.6354 44.2854 90.5732 44.2224L88.9991 46.3546L88.4841 45.368L90.0251 43.3412L89.5056 42.346L87.4631 43.4121L86.9888 42.5034L92.1641 39.8019L93.4335 42.2338C93.554 42.4646 93.5974 42.7025 93.5639 42.9476C93.5536 43.0264 93.5207 43.1463 93.4653 43.3074C93.4129 43.4742 93.3684 43.5929 93.3318 43.6634C93.2303 43.8486 93.0814 43.9924 92.8852 44.0948L92.1236 44.4923ZM91.658 43.5791L92.4022 43.1906C92.4311 43.1755 92.4498 43.1621 92.4583 43.1503C92.5802 42.9619 92.6243 42.8214 92.5907 42.7288L91.773 41.1624L90.371 41.8942L91.1661 43.4174C91.1872 43.4578 91.2475 43.496 91.3471 43.5321C91.4467 43.5682 91.5373 43.587 91.6188 43.5885C91.6334 43.5883 91.6464 43.5851 91.658 43.5791Z" fill="white"/>
<path d="M91.4602 54.3718L90.6914 50.7825L96.3999 49.5599L97.1687 53.1492L96.2141 53.3536L95.66 50.7667L94.2186 51.0754L94.7338 53.481L93.7792 53.6854L93.264 51.2798L91.8607 51.5804L92.4148 54.1673L91.4602 54.3718Z" fill="white"/>
<path d="M92.907 63.3356C92.7608 63.2631 92.6407 63.1887 92.5467 63.1123C92.0273 62.6824 91.7781 62.2562 91.7991 61.8337L91.8599 60.6149C91.8706 60.4004 91.9391 60.2018 92.0655 60.0191C92.1289 59.9246 92.2424 59.8031 92.4062 59.6549C92.57 59.5067 92.699 59.4023 92.7933 59.3419C92.9544 59.2456 93.1423 59.2029 93.3568 59.2136L96.4282 59.3666C96.6362 59.377 96.8156 59.4381 96.9664 59.5498C97.0607 59.6197 97.1819 59.7365 97.3301 59.9003C97.4846 60.0709 97.5855 60.203 97.633 60.2966C97.7396 60.5104 97.7881 60.7148 97.7783 60.9099L97.7176 62.1286C97.6969 62.5447 97.4065 62.944 96.8466 63.3266C96.7927 63.363 96.6755 63.4256 96.4952 63.5144L96.262 62.5057C96.5122 62.3227 96.669 62.1839 96.7323 62.0893C96.7392 62.0831 96.7431 62.0703 96.744 62.0508L96.8014 60.9003L96.7936 60.8608C96.711 60.6872 96.5753 60.5339 96.3864 60.4006C96.3737 60.3935 96.3381 60.3885 96.2796 60.3855L93.3155 60.2378C93.2635 60.2352 93.1829 60.2834 93.0738 60.3822C92.9707 60.4878 92.8944 60.5818 92.8447 60.664C92.8378 60.6702 92.8335 60.6928 92.8315 60.7318L92.7761 61.8433C92.7752 61.8628 92.7776 61.8792 92.7834 61.8925C92.8065 61.9523 92.8553 62.0199 92.9297 62.0953C93.0039 62.1772 93.0723 62.2425 93.135 62.2913L93.2198 62.3541L92.907 63.3356Z" fill="white"/>
<path fill-rule="evenodd" clip-rule="evenodd" d="M18 71C15.2386 71 13 73.2386 13 76V108.625C13 111.386 15.2386 113.625 18 113.625H101C103.761 113.625 106 111.386 106 108.625V76C106 73.2386 103.761 71 101 71H18ZM29.0688 107.918H24.4576C23.4621 107.918 22.8034 107.757 22.4813 107.435C22.1885 107.113 22.0421 106.44 22.0421 105.415V77.9234C22.0421 77.3964 22.1885 76.9718 22.4813 76.6498C22.7741 76.3277 23.1547 76.1667 23.6231 76.1667H29.0688V107.918ZM30.8255 76.1667H36.4029C39.1843 76.1667 41.0288 76.8254 41.9364 78.1429C42.8733 79.4312 43.3417 82.0369 43.3417 85.9601C43.3417 88.5658 43.049 90.6006 42.4634 92.0645C41.9071 93.5284 41.1605 94.5092 40.2236 95.0069C39.2868 95.4754 38.0132 95.7096 36.4029 95.7096H30.8255V91.5375H34.0753C34.8365 91.5375 35.3196 91.4351 35.5246 91.2301C35.7588 91.0252 35.8759 90.7031 35.8759 90.2639V81.6563C35.8759 81.1878 35.7588 80.8511 35.5246 80.6462C35.3196 80.4412 34.8365 80.3388 34.0753 80.3388H30.8255V76.1667ZM54.9299 107.918H50.3186C49.3232 107.918 48.6645 107.757 48.3424 107.435C48.0496 107.113 47.9032 106.44 47.9032 105.415V77.9234C47.9032 77.3964 48.0496 76.9718 48.3424 76.6498C48.6352 76.3277 49.0158 76.1667 49.4842 76.1667H54.9299V107.918ZM56.6866 76.1667H62.264C63.9621 76.1667 65.2942 76.2984 66.2604 76.5619C67.2558 76.8254 68.0024 77.3524 68.5001 78.1429C68.9979 78.9042 69.3053 79.7679 69.4224 80.734C69.5688 81.6709 69.642 83.0031 69.642 84.7304C69.642 86.4578 69.5688 87.7753 69.4224 88.6829C69.3053 89.5906 68.9979 90.4396 68.5001 91.2301C68.0317 92.0206 67.2851 92.5769 66.2604 92.8989C65.265 93.221 63.9328 93.382 62.264 93.382H56.6866V89.2099H59.9364C60.6976 89.2099 61.1807 89.1075 61.3856 88.9025C61.6199 88.6976 61.737 88.3755 61.737 87.9364V81.6563C61.737 81.1878 61.6199 80.8511 61.3856 80.6462C61.1807 80.4412 60.6976 80.3388 59.9364 80.3388H56.6866V76.1667ZM60.9026 94.7434H66.3482C67.2266 94.7434 67.856 94.9923 68.2366 95.49C68.6173 95.9585 68.8076 96.7343 68.8076 97.8176V107.918H62.4836C62.0151 107.918 61.6345 107.757 61.3417 107.435C61.049 107.113 60.9026 106.689 60.9026 106.162V94.7434ZM82.6475 102.473V76.1667H82.1205C80.9494 76.1667 79.9686 76.2545 79.1781 76.4302C78.4168 76.5766 77.7435 76.9279 77.1579 77.4842C76.6016 78.0112 76.1625 78.6114 75.8404 79.2848C75.5476 79.9289 75.3134 80.9243 75.1377 82.2711C74.9621 83.5886 74.845 84.95 74.7864 86.3554C74.7571 87.7607 74.7425 90.1761 74.7425 93.6016C74.7425 96.9978 74.8742 99.706 75.1377 101.726C75.3134 103.073 75.5476 104.083 75.8404 104.756C76.1625 105.43 76.6016 106.045 77.1579 106.601C77.7435 107.128 78.4168 107.479 79.1781 107.655C79.9686 107.831 80.9494 107.918 82.1205 107.918H87.6979V103.746H84.4481C83.6869 103.746 83.1891 103.644 82.9549 103.439C82.75 103.234 82.6475 102.912 82.6475 102.473ZM89.9816 76.2106H84.4042V80.3827H87.654C88.4152 80.3827 88.8983 80.4852 89.1032 80.6901C89.3375 80.8951 89.4546 81.2171 89.4546 81.6563V107.962H89.9816C91.1527 107.962 92.1189 107.889 92.8801 107.743C93.6706 107.567 94.344 107.216 94.9002 106.689C95.4858 106.132 95.925 105.532 96.2177 104.888C96.5398 104.215 96.7887 103.219 96.9643 101.902C97.14 100.555 97.2425 99.179 97.2717 97.7737C97.3303 96.3684 97.3596 93.9676 97.3596 90.5714C97.3596 87.1459 97.2278 84.423 96.9643 82.4029C96.7887 81.0561 96.5398 80.046 96.2177 79.3726C95.925 78.6992 95.4858 78.099 94.9002 77.572C94.344 77.0157 93.6706 76.6498 92.8801 76.4741C92.1189 76.2984 91.1527 76.2106 89.9816 76.2106Z" fill="white"/>
<path fill-rule="evenodd" clip-rule="evenodd" d="M56.9746 3.04855C58.2471 1.47812 60.6428 1.47812 61.9153 3.04855L64.0232 5.64995C65.0956 6.97345 67.0206 7.21663 68.3885 6.20141L71.0771 4.20597C72.7002 3.00134 75.0206 3.59711 75.8626 5.43467L77.2574 8.47856C77.967 10.0272 79.771 10.7415 81.3484 10.0983L84.4488 8.83418C86.3204 8.07104 88.4198 9.22516 88.7784 11.2144L89.3723 14.5096C89.6745 16.186 91.2442 17.3265 92.932 17.0958L96.2494 16.6424C98.252 16.3687 99.9984 18.0086 99.851 20.0245L99.6068 23.3638C99.4826 25.0627 100.72 26.5578 102.412 26.7541L105.738 27.1399C107.745 27.3729 109.029 29.3957 108.385 31.3116L107.318 34.4852C106.775 36.0998 107.601 37.8554 109.191 38.4664L112.317 39.6674C114.204 40.3923 114.944 42.6707 113.844 44.3662L112.021 47.1749C111.094 48.6038 111.457 50.5096 112.845 51.4968L115.574 53.4374C117.221 54.6087 117.372 56.9997 115.884 58.3683L113.42 60.6353C112.167 61.7887 112.045 63.7253 113.144 65.0267L115.304 67.5847C115.416 67.7176 115.515 67.8565 115.602 68H102.574C103.12 65.2325 103.406 62.3718 103.406 59.4441C103.406 35.1652 83.7235 15.4833 59.4446 15.4833C35.1657 15.4833 15.4837 35.1652 15.4837 59.4441C15.4837 62.3718 15.7698 65.2325 16.3157 68H3.28755C3.37408 67.8565 3.47334 67.7176 3.58558 67.5847L5.74591 65.0267C6.84502 63.7253 6.72319 61.7887 5.46964 60.6353L3.00573 58.3683C1.5183 56.9997 1.66873 54.6087 3.31596 53.4374L6.04458 51.4968C7.43281 50.5096 7.79638 48.6038 6.86905 47.1749L5.04636 44.3662C3.94603 42.6707 4.68633 40.3923 6.57313 39.6674L9.69858 38.4664C11.2888 37.8554 12.1149 36.0998 11.572 34.4852L10.5051 31.3116C9.86095 29.3957 11.1446 27.3729 13.1525 27.1399L16.4784 26.7541C18.1705 26.5578 19.4072 25.0627 19.283 23.3638L19.0389 20.0245C18.8915 18.0086 20.6378 16.3687 22.6405 16.6424L25.9579 17.0958C27.6456 17.3265 29.2153 16.186 29.5175 14.5094L30.1115 11.2144C30.47 9.22516 32.5694 8.07104 34.4411 8.83418L37.5415 10.0983C39.1189 10.7415 40.9229 10.0272 41.6325 8.47856L43.0272 5.43467C43.8692 3.59711 46.1896 3.00134 47.8127 4.20597L50.5014 6.20141C51.8692 7.21663 53.7942 6.97345 54.8666 5.64995L56.9746 3.04855Z" fill="white"/>
</svg>
