<svg width="119" height="119" viewBox="0 0 119 119" fill="none" xmlns="http://www.w3.org/2000/svg">
<path fill-rule="evenodd" clip-rule="evenodd" d="M61.9155 3.0486C60.643 1.47817 58.2473 1.47817 56.9748 3.0486L54.8668 5.65C53.7944 6.9735 51.8694 7.21668 50.5016 6.20146L47.8129 4.20602C46.1898 3.00139 43.8694 3.59716 43.0274 5.43472L41.6327 8.47861C40.9231 10.0272 39.1191 10.7415 37.5417 10.0983L34.4413 8.83423C32.5696 8.07109 30.4702 9.22521 30.1117 11.2144L29.5177 14.5095C29.2155 16.186 27.6458 17.3265 25.9581 17.0958L22.6407 16.6424C20.638 16.3687 18.8917 18.0087 19.0391 20.0246L19.2832 23.3639C19.4074 25.0628 18.1707 26.5578 16.4786 26.7541L13.1527 27.14C11.1448 27.373 9.86119 29.3957 10.5053 31.3116L11.5722 34.4853C12.1151 36.0999 11.289 37.8555 9.69882 38.4665L6.57337 39.6674C4.68657 40.3923 3.94627 42.6707 5.0466 44.3663L6.86929 47.1749C7.79662 48.6038 7.43305 50.5097 6.04482 51.4969L3.3162 53.4374C1.66897 54.6088 1.51854 56.9997 3.00597 58.3683L5.46988 60.6354C6.72343 61.7888 6.84526 63.7253 5.74615 65.0267L3.58582 67.5848C2.28165 69.129 2.73055 71.4822 4.51162 72.438L7.46192 74.0211C8.96293 74.8265 9.5625 76.6718 8.82159 78.2057L7.36528 81.2206C6.48613 83.0407 7.50615 85.2084 9.46893 85.6911L12.7203 86.4908C14.3744 86.8977 15.4141 88.5359 15.0779 90.2058L14.4171 93.4882C14.0182 95.4697 15.5453 97.3156 17.5664 97.2951L20.9145 97.2611C22.6179 97.2438 24.0323 98.572 24.1219 100.273L24.2982 103.617C24.4046 105.635 26.3428 107.043 28.2953 106.521L31.5297 105.655C33.1753 105.215 34.8756 106.15 35.3855 107.775L36.3877 110.97C36.9928 112.898 39.2202 113.78 40.9815 112.788L43.899 111.146C45.3834 110.31 47.2627 110.792 48.1608 112.24L49.926 115.085C50.9917 116.802 53.3685 117.103 54.8278 115.704L57.2451 113.387C58.475 112.209 60.4152 112.209 61.6451 113.387L64.0625 115.704C65.5218 117.103 67.8985 116.802 68.9642 115.085L70.7295 112.24C71.6276 110.792 73.5069 110.31 74.9912 111.146L77.9087 112.788C79.67 113.78 81.8974 112.898 82.5025 110.97L83.5048 107.775C84.0147 106.15 85.7149 105.215 87.3605 105.655L90.5949 106.521C92.5475 107.043 94.4856 105.635 94.592 103.617L94.7683 100.273C94.858 98.572 96.2724 97.2438 97.9757 97.2611L101.324 97.2951C103.345 97.3156 104.872 95.4697 104.473 93.4882L103.812 90.2058C103.476 88.5359 104.516 86.8977 106.17 86.4908L109.421 85.6911C111.384 85.2084 112.404 83.0407 111.525 81.2206L110.069 78.2057C109.328 76.6718 109.927 74.8265 111.428 74.0211L114.379 72.438C116.16 71.4822 116.609 69.129 115.304 67.5848L113.144 65.0267C112.045 63.7253 112.167 61.7888 113.42 60.6354L115.884 58.3683C117.372 56.9997 117.221 54.6088 115.574 53.4374L112.845 51.4969C111.457 50.5097 111.094 48.6038 112.021 47.1749L113.844 44.3663C114.944 42.6707 114.204 40.3923 112.317 39.6674L109.191 38.4665C107.601 37.8555 106.775 36.0999 107.318 34.4853L108.385 31.3116C109.029 29.3957 107.745 27.373 105.738 27.14L102.412 26.7541C100.72 26.5578 99.4828 25.0628 99.607 23.3639L99.8512 20.0246C99.9986 18.0087 98.2522 16.3687 96.2496 16.6424L92.9322 17.0958C91.2444 17.3265 89.6747 16.186 89.3725 14.5096L88.7786 11.2144C88.42 9.22521 86.3207 8.07109 84.449 8.83423L81.3486 10.0983C79.7712 10.7415 77.9672 10.0272 77.2576 8.47861L75.8628 5.43472C75.0208 3.59716 72.7004 3.00139 71.0773 4.20602L68.3887 6.20146C67.0208 7.21668 65.0958 6.9735 64.0234 5.65L61.9155 3.0486ZM59.4448 103.405C83.7237 103.405 103.406 83.7232 103.406 59.4442C103.406 35.1653 83.7237 15.4833 59.4448 15.4833C35.1659 15.4833 15.4839 35.1653 15.4839 59.4442C15.4839 83.7232 35.1659 103.405 59.4448 103.405Z" fill="white"/>
<path d="M83.0015 55.597C83.0015 58.201 83.0524 60.8075 82.9641 63.4099C82.9267 64.0994 82.6479 64.7562 82.1737 65.2723C75.0142 72.4222 67.8263 79.5468 60.6102 86.6463C59.4921 87.7516 59.3835 87.7475 58.2331 86.6085C51.1319 79.5819 44.0258 72.5579 36.915 65.5368C36.5701 65.2264 36.2985 64.8479 36.1186 64.4269C35.9387 64.0058 35.8547 63.5522 35.8724 63.097C35.9191 58.0146 35.8894 52.9315 35.9191 47.8483C35.9811 47.3702 36.1037 46.9013 36.2842 46.4523C36.7743 46.6309 37.2363 46.8747 37.6569 47.1765C39.4177 48.8575 41.1623 50.559 42.8296 52.3262C43.2675 52.817 43.529 53.4319 43.575 54.0787C43.6659 56.1316 43.5563 58.1961 43.6455 60.2507C43.6787 60.9022 43.9366 61.5241 44.3781 62.0171C49.0822 66.7308 53.8508 71.3845 58.5676 76.0874C59.2739 76.792 59.7231 76.6869 60.3666 76.0472C65.0893 71.3508 69.8511 66.6897 74.5543 61.9744C74.9558 61.5033 75.1819 60.9153 75.1962 60.3049C75.2734 58.252 75.1826 56.1883 75.2624 54.132C75.2874 53.5205 75.5191 52.9337 75.922 52.4617C77.7176 50.5796 79.5887 48.7664 81.4657 46.9598C81.7974 46.7299 82.164 46.5513 82.5524 46.4301C82.7499 46.7727 82.8887 47.144 82.9633 47.5297C82.9981 50.2174 82.9819 52.906 82.9819 55.5946H83.0006" fill="white"/>
<path d="M59.5076 43.092C64.9741 43.092 70.4396 43.0813 75.9061 43.1084C76.4789 43.168 77.0435 43.2863 77.5904 43.4615C77.3378 43.9996 77.0246 44.5091 76.6566 44.9807C74.9332 46.7529 73.1809 48.5012 71.3812 50.2011C71.049 50.495 70.7897 50.8577 70.6227 51.2621C70.4557 51.6665 70.3853 52.1021 70.4167 52.5365C70.4762 54.6716 70.4821 56.8182 70.4057 58.955C70.3826 59.5662 70.1482 60.1523 69.7401 60.6195C66.6609 63.7491 63.5054 66.8097 60.4084 69.9236C59.6918 70.6438 59.1689 70.6044 58.4753 69.908C55.4038 66.8277 52.2779 63.7975 49.2327 60.6934C48.8006 60.1958 48.5521 59.5732 48.5264 58.9238C48.4415 56.7887 48.461 54.6437 48.5128 52.5045C48.5415 52.0908 48.4735 51.6761 48.3139 51.2913C48.1543 50.9065 47.9071 50.5614 47.5908 50.2815C45.7902 48.5841 44.0396 46.8325 42.3171 45.0604C41.9165 44.5604 41.5686 44.0229 41.2788 43.4558C41.8761 43.2844 42.489 43.1689 43.1092 43.1109C48.5756 43.0838 54.0429 43.092 59.5076 43.092Z" fill="white"/>
<path d="M28.8294 79.0486C29.0109 78.9221 29.2073 78.8567 29.4184 78.8523C29.4979 78.8525 29.6192 78.8671 29.7822 78.8963C29.94 78.9291 30.0607 78.96 30.1444 78.989C30.3772 79.0727 30.568 79.2213 30.7168 79.4349L31.6992 80.8446L33.5894 79.5273L34.1755 80.3683L29.3858 83.7061L27.8174 81.4554C27.6686 81.2418 27.5952 81.0113 27.5973 80.7639C27.5975 80.6845 27.6148 80.5614 27.6493 80.3945C27.6801 80.2224 27.7091 80.099 27.7365 80.0244C27.8136 79.8279 27.943 79.6663 28.1246 79.5398L28.8294 79.0486ZM29.4074 79.8952L28.7186 80.3752C28.6919 80.3938 28.6751 80.4095 28.6681 80.4223C28.5712 80.6247 28.5453 80.7697 28.5905 80.8572L28.6184 80.8972L29.6007 82.3069L30.8982 81.4027L29.9159 79.993C29.8898 79.9557 29.8251 79.9254 29.7217 79.9023C29.6184 79.8791 29.5261 79.872 29.4451 79.8809C29.4307 79.883 29.4181 79.8878 29.4074 79.8952Z" fill="white"/>
<path d="M24.9288 70.4739C25.1375 70.4004 25.3442 70.3897 25.5488 70.4419C25.6254 70.4632 25.7383 70.5097 25.8877 70.5813C26.031 70.6551 26.1391 70.717 26.212 70.7673C26.3014 70.8255 26.3725 70.8902 26.4252 70.9613L28.2862 69.0745L28.6558 70.1242L26.8425 71.9115L27.2153 72.9704L29.3885 72.2053L29.7289 73.1722L24.2223 75.1109L23.3113 72.5234C23.2248 72.2778 23.2156 72.0361 23.2837 71.7982C23.305 71.7217 23.3546 71.6077 23.4323 71.4561C23.5079 71.2984 23.5688 71.1873 23.6151 71.1227C23.7419 70.9538 23.9097 70.8327 24.1184 70.7592L24.9288 70.4739ZM25.26 71.444L24.4681 71.7228C24.4374 71.7336 24.417 71.7442 24.4068 71.7547C24.2594 71.9239 24.1958 72.0567 24.2159 72.1531L24.8027 73.8198L26.2945 73.2946L25.7239 71.674C25.7088 71.631 25.6545 71.5846 25.561 71.5347C25.4675 71.4848 25.3806 71.4533 25.3001 71.4402C25.2856 71.4384 25.2723 71.4397 25.26 71.444Z" fill="white"/>
<path d="M25.571 60.1071C25.7854 60.0944 25.9736 60.1354 26.1357 60.2301C26.2443 60.3019 26.3811 60.4112 26.5463 60.5579C26.711 60.6981 26.8221 60.8121 26.8795 60.9C27.0076 61.0815 27.0779 61.2795 27.0906 61.4939L27.1783 62.9751C27.191 63.1895 27.1444 63.3944 27.0386 63.5897C26.992 63.6838 26.8956 63.8166 26.7493 63.9883C26.5961 64.1538 26.4727 64.2719 26.379 64.3427C26.2293 64.4559 26.0472 64.5188 25.8328 64.5315L22.7825 64.712C22.5681 64.7247 22.3798 64.6836 22.2178 64.5889C22.1165 64.5297 21.9832 64.4268 21.8181 64.2801C21.6461 64.1273 21.5314 64.0069 21.474 63.919C21.3459 63.7375 21.2755 63.5396 21.2628 63.3252L21.1752 61.8439C21.1625 61.6295 21.209 61.4246 21.3148 61.2293C21.3614 61.1353 21.4583 61.0089 21.6054 60.8503C21.7521 60.6851 21.8751 60.5605 21.9744 60.4764C22.1242 60.3632 22.3063 60.3003 22.5207 60.2876L25.571 60.1071ZM22.7512 63.687L25.7625 63.5088C25.782 63.5076 25.7948 63.5036 25.8009 63.4967C25.9881 63.3553 26.1193 63.2041 26.1946 63.0431C26.2003 63.0298 26.2026 63.0133 26.2014 62.9938L26.1184 61.5905C26.1172 61.571 26.113 61.555 26.1058 61.5423C26.0121 61.3914 25.8639 61.2568 25.6613 61.1383L25.6218 61.1309L22.6105 61.3091C22.5845 61.3106 22.5684 61.3149 22.5623 61.3217C22.369 61.4701 22.2345 61.6215 22.1589 61.7759C22.1532 61.7893 22.1509 61.8057 22.152 61.8252L22.2351 63.2285C22.2366 63.2545 22.2408 63.2706 22.2477 63.2767C22.341 63.4211 22.4924 63.5556 22.7019 63.6801L22.7512 63.687Z" fill="white"/>
<path d="M23.2868 50.5814L22.9556 52.1278L27.7095 53.146L27.4948 54.1483L22.7409 53.1302L22.4097 54.6766L21.4551 54.4722L22.3322 50.3769L23.2868 50.5814Z" fill="white"/>
<path d="M31.1447 43.9623L29.4765 47.232L24.2763 44.5788L25.9445 41.3091L26.8141 41.7528L25.6117 44.1094L26.9248 44.7793L28.0429 42.588L28.9125 43.0316L27.7944 45.223L29.0727 45.8752L30.2751 43.5186L31.1447 43.9623Z" fill="white"/>
<path d="M35.6777 36.0957C35.7455 36.2442 35.7917 36.3777 35.8164 36.4962C35.9482 37.1575 35.8726 37.6454 35.5897 37.9599L34.7735 38.8671C34.6299 39.0268 34.4514 39.1377 34.2381 39.1996C34.1293 39.233 33.9646 39.2556 33.744 39.2672C33.5234 39.2789 33.3575 39.2785 33.2462 39.2659C33.0604 39.2389 32.8877 39.1535 32.728 39.0099L30.4417 36.9533C30.2869 36.814 30.1862 36.6534 30.1398 36.4715C30.1107 36.3579 30.0903 36.1907 30.0787 35.9702C30.0665 35.7404 30.0716 35.5742 30.0938 35.4716C30.146 35.2385 30.2374 35.0493 30.3679 34.9041L31.184 33.9969C31.4626 33.6872 31.9398 33.5606 32.6156 33.617C32.6804 33.6228 32.8108 33.6481 33.0068 33.6931L32.5513 34.6227C32.2417 34.6069 32.0325 34.6156 31.9236 34.649C31.9144 34.6495 31.9033 34.657 31.8903 34.6715L31.1198 35.528L31.101 35.5635C31.0556 35.7503 31.0641 35.9549 31.1265 36.1774C31.1319 36.191 31.1563 36.2173 31.1999 36.2565L33.4063 38.2413C33.445 38.2761 33.5379 38.2896 33.6849 38.2818C33.8315 38.2649 33.95 38.2402 34.0405 38.2077C34.0497 38.2072 34.0673 38.1925 34.0934 38.1635L34.8377 37.336C34.8508 37.3215 34.8593 37.3073 34.8631 37.2932C34.8829 37.2323 34.8878 37.1491 34.8776 37.0436C34.8717 36.9333 34.8599 36.8395 34.8419 36.7621L34.8158 36.6598L35.6777 36.0957Z" fill="white"/>
<path d="M40.3584 27.7892L39.0333 28.6525L41.6873 32.7259L40.8284 33.2855L38.1745 29.2121L36.8494 30.0754L36.3165 29.2574L39.8255 26.9712L40.3584 27.7892Z" fill="white"/>
<path d="M50.5989 28.6343L47.1107 29.7774L45.2928 24.2297L48.7809 23.0866L49.0849 24.0143L46.5709 24.8382L47.0299 26.239L49.3677 25.4729L49.6717 26.4006L47.3339 27.1667L47.7808 28.5305L50.2949 27.7066L50.5989 28.6343Z" fill="white"/>
<path d="M59.3398 25.9837C59.3504 26.2112 59.3103 26.3988 59.2194 26.5463C59.1587 26.6404 59.0539 26.7691 58.9051 26.9324C58.7561 27.0892 58.6309 27.1992 58.5296 27.2626C58.327 27.3893 58.1347 27.4569 57.9527 27.4654L55.2807 27.5899L55.0089 21.7583L57.6809 21.6338C57.9084 21.6232 58.1093 21.6692 58.2835 21.7719C58.3837 21.8258 58.5123 21.9273 58.6691 22.0764C58.8259 22.2255 58.9424 22.3503 59.0188 22.451C59.1295 22.5892 59.1901 22.7721 59.2007 22.9996L59.3398 25.9837ZM56.2592 26.567L57.839 26.4934C57.878 26.4916 57.9006 26.4873 57.9068 26.4805C57.9827 26.4313 58.0704 26.3556 58.1698 26.2532C58.269 26.1443 58.3174 26.0639 58.3149 26.0119L58.1782 23.0766C58.1772 23.0571 58.1732 23.041 58.1661 23.0283C58.0332 22.8325 57.8835 22.6961 57.7171 22.6192C57.7102 22.613 57.6808 22.6111 57.6288 22.6135L56.0783 22.6858L56.2592 26.567Z" fill="white"/>
<path d="M73.9725 29.3316C73.8857 29.5421 73.7601 29.7016 73.5958 29.8098C73.5288 29.8526 73.4176 29.9088 73.2622 29.9785C73.1092 30.0421 72.994 30.0826 72.9164 30.0999C72.6753 30.1553 72.4314 30.1321 72.1847 30.0304L69.6487 28.9845L71.8746 23.5875L74.4106 24.6335C74.6453 24.7302 74.8333 24.8888 74.9748 25.109C75.0176 25.176 75.0696 25.2889 75.1307 25.4479C75.1944 25.6009 75.2348 25.7161 75.2521 25.7937C75.2924 25.9863 75.2666 26.1939 75.1748 26.4165L74.8993 27.0843C74.7802 27.3731 74.555 27.5865 74.2235 27.7243C74.3614 28.0558 74.372 28.3629 74.2554 28.6457L73.9725 29.3316ZM73.9241 26.7349C73.9351 26.7254 73.9467 26.7055 73.9592 26.6755L74.2234 26.0347L74.233 25.9858C74.2207 25.8963 74.1921 25.8035 74.1471 25.7075C74.1107 25.608 74.0715 25.5496 74.0294 25.5322L72.45 24.8809L71.8879 26.2436L73.4763 26.8987C73.5185 26.9161 73.5893 26.9066 73.6888 26.8702C73.7883 26.8338 73.8667 26.7887 73.9241 26.7349ZM73.0047 28.9641C73.0182 28.9485 73.0298 28.9287 73.0398 28.9046L73.304 28.2639L73.3136 28.215C73.3013 28.1254 73.2727 28.0327 73.2278 27.9367C73.1889 27.8432 73.1484 27.7878 73.1063 27.7704L71.5269 27.1191L70.9686 28.4728L72.557 29.1279C72.5991 29.1453 72.6699 29.1358 72.7694 29.0994C72.8689 29.063 72.9473 29.0179 73.0047 28.9641Z" fill="white"/>
<path d="M84.2119 30.6114L80.6793 32.0538L79.1333 34.0792L78.3185 33.4572L79.8645 31.4318L80.3396 27.6557L81.2398 28.3428L80.9273 30.8922L83.304 29.9184L84.2119 30.6114Z" fill="white"/>
<path d="M92.1237 44.4923C91.9276 44.5947 91.7245 44.6346 91.5145 44.6121C91.4357 44.6018 91.3173 44.5719 91.1593 44.5222C91.007 44.4696 90.8912 44.4236 90.8119 44.3842C90.715 44.3393 90.6355 44.2854 90.5733 44.2224L88.9992 46.3546L88.4842 45.368L90.0252 43.3412L89.5057 42.346L87.4632 43.4121L86.9889 42.5034L92.1642 39.8019L93.4336 42.2338C93.5541 42.4646 93.5975 42.7025 93.564 42.9476C93.5537 43.0264 93.5208 43.1463 93.4654 43.3074C93.413 43.4742 93.3685 43.5929 93.3319 43.6634C93.2304 43.8486 93.0815 43.9924 92.8853 44.0948L92.1237 44.4923ZM91.6581 43.5791L92.4023 43.1906C92.4312 43.1755 92.4499 43.1621 92.4584 43.1503C92.5803 42.9619 92.6244 42.8214 92.5908 42.7288L91.7731 41.1624L90.3711 41.8942L91.1662 43.4174C91.1873 43.4578 91.2476 43.496 91.3472 43.5321C91.4468 43.5682 91.5374 43.587 91.6189 43.5885C91.6335 43.5883 91.6465 43.5851 91.6581 43.5791Z" fill="white"/>
<path d="M91.4604 54.3718L90.6916 50.7825L96.4001 49.5599L97.1689 53.1492L96.2143 53.3536L95.6602 50.7667L94.2188 51.0754L94.734 53.481L93.7794 53.6854L93.2642 51.2798L91.8609 51.5804L92.415 54.1673L91.4604 54.3718Z" fill="white"/>
<path d="M92.9072 63.3357C92.761 63.2632 92.6409 63.1888 92.5469 63.1124C92.0275 62.6825 91.7783 62.2563 91.7993 61.8338L91.8601 60.615C91.8708 60.4005 91.9393 60.2019 92.0657 60.0192C92.1291 59.9247 92.2426 59.8032 92.4064 59.655C92.5702 59.5068 92.6992 59.4024 92.7935 59.342C92.9546 59.2457 93.1425 59.203 93.357 59.2137L96.4284 59.3667C96.6364 59.3771 96.8158 59.4382 96.9666 59.5499C97.0609 59.6198 97.1821 59.7366 97.3303 59.9004C97.4848 60.071 97.5857 60.2031 97.6332 60.2967C97.7398 60.5105 97.7883 60.7149 97.7785 60.91L97.7178 62.1287C97.6971 62.5448 97.4067 62.9441 96.8468 63.3267C96.7929 63.3631 96.6757 63.4257 96.4954 63.5145L96.2622 62.5058C96.5124 62.3228 96.6692 62.184 96.7325 62.0894C96.7394 62.0832 96.7433 62.0704 96.7442 62.0509L96.8016 60.9004L96.7938 60.8609C96.7112 60.6873 96.5755 60.534 96.3866 60.4007C96.3739 60.3936 96.3383 60.3886 96.2798 60.3856L93.3157 60.2379C93.2637 60.2353 93.1831 60.2835 93.074 60.3823C92.9709 60.4879 92.8946 60.5819 92.8449 60.6641C92.838 60.6703 92.8337 60.6929 92.8317 60.7319L92.7763 61.8434C92.7754 61.8629 92.7778 61.8793 92.7836 61.8926C92.8067 61.9524 92.8555 62.02 92.9299 62.0954C93.0041 62.1773 93.0725 62.2426 93.1352 62.2914L93.22 62.3542L92.9072 63.3357Z" fill="white"/>
<path d="M91.016 72.2103C90.8121 72.1427 90.6524 72.035 90.5369 71.887C90.4626 71.7801 90.3759 71.628 90.2767 71.4306C90.1755 71.2394 90.1145 71.0923 90.0938 70.9895C90.0419 70.7735 90.0498 70.5635 90.1173 70.3597L90.5839 68.951C90.6515 68.7472 90.7705 68.5741 90.9411 68.4317C91.0191 68.3616 91.1579 68.2739 91.3573 68.1685C91.5609 68.0714 91.7193 68.0073 91.8324 67.9763C92.0134 67.9265 92.2059 67.9354 92.4098 68.003L95.3104 68.9639C95.5143 69.0314 95.674 69.1391 95.7895 69.2871C95.8617 69.3796 95.9474 69.5245 96.0465 69.7219C96.1498 69.9275 96.2119 70.0818 96.2326 70.1847C96.2845 70.4007 96.2766 70.6106 96.2091 70.8145L95.7425 72.2231C95.6749 72.427 95.5559 72.6001 95.3853 72.7424C95.3073 72.8125 95.1705 72.8941 94.9752 72.987C94.7778 73.0862 94.6174 73.1565 94.494 73.1979C94.313 73.2476 94.1205 73.2387 93.9166 73.1712L91.016 72.2103ZM94.9602 69.9277L92.0967 68.9791C92.0781 68.973 92.0648 68.972 92.0565 68.9761C91.8303 69.0382 91.6524 69.1302 91.523 69.2518C91.5127 69.2621 91.5045 69.2766 91.4984 69.2951L91.0563 70.6296C91.0502 70.6481 91.0481 70.6646 91.0502 70.679C91.0814 70.8539 91.1692 71.0338 91.3136 71.2187L91.3476 71.2403L94.2112 72.1889C94.2359 72.1971 94.2524 72.1991 94.2606 72.195C94.4951 72.1287 94.676 72.0378 94.8034 71.9223C94.8137 71.912 94.8219 71.8976 94.828 71.879L95.2701 70.5446C95.2783 70.5198 95.2803 70.5034 95.2762 70.4951C95.2429 70.3264 95.1521 70.1455 95.0035 69.9523L94.9602 69.9277Z" fill="white"/>
<path d="M85.4246 79.3967L86.0358 78.5019L90.3759 79.0194L87.1757 76.8333L87.7539 75.9869L92.5744 79.2798L91.9522 80.1907L87.5827 79.6296L90.8233 81.8433L90.2451 82.6897L85.4246 79.3967Z" fill="white"/>
</svg>
